# xmcd
#
# Track frame offsets: 
#        150
#        23762
#        43740
#        65012
#        79412
#        99222
#        116045
#        128520
#        145485
#        165702
#
# Disc length: 2476 seconds
#
# Revision: 2
# Processed by: cddbd v1.5.2PL0 Copyright (c) Steve Scherf et al.
# Submitted via: ExactAudioCopy v1.3
#
DISCID=8609aa0a
DTITLE=黃齡 - 特別
DYEAR=2010
DGENRE=未知流派
TTITLE0=小城故事
TTITLE1=特別
TTITLE2=HIGH歌
TTITLE3=愛壞
TTITLE4=原諒
TTITLE5=騎士
TTITLE6=太后
TTITLE7=癢
TTITLE8=不怕痛
TTITLE9=靈芝緣
EXTD=
EXTT0=
EXTT1=
EXTT2=
EXTT3=
EXTT4=
EXTT5=
EXTT6=
EXTT7=
EXTT8=
EXTT9=
PLAYORDER=
